<svg xmlns="http://www.w3.org/2000/svg" width="400" height="560" viewBox="0 0 400 560"><rect width="400" height="560" fill="#bf613f"/><rect x="10" y="10" width="380" height="540" rx="2" fill="none" stroke="#f0d595" opacity=".25"/><g font-family="Segoe UI,Arial,sans-serif"><text x="33" y="35" font-size="10" fill="#f0d595" letter-spacing="3">STORYRENT / THE READING ROOM</text><text x="32" y="88" fill="#f0d595" font-size="37" font-weight="800" letter-spacing="-1">Chainsaw Man</text><text x="33" y="143" font-size="11" fill="#f0d595" opacity=".8">Những giấc mơ nhỏ</text><path d="M55 255L292 220L347 419L110 455Z" fill="#343b33"/><path d="M106 272L248 254L291 409L149 425Z" fill="#bf613f"/><circle cx="201" cy="330" r="43" fill="#f0d595"/><path d="M183 310L223 350M181 351L223 309" stroke="#bf613f" stroke-width="6"/><path d="M40 330H100M291 330H358M201 188V240M201 436V484" stroke="#f0d595" stroke-width="2"/><path d="M30 508H370" stroke="#f0d595" opacity=".3"/><text x="32" y="533" font-size="10" fill="#f0d595" letter-spacing="2">ILLUSTRATED EDITION</text><text x="365" y="535" text-anchor="end" font-size="21" font-weight="600" fill="#f0d595">12</text></g></svg>