<svg xmlns="http://www.w3.org/2000/svg" width="400" height="560" viewBox="0 0 400 560"><rect width="400" height="560" fill="#468baf"/><rect x="10" y="10" width="380" height="540" rx="2" fill="none" stroke="#e1eff1" opacity=".25"/><g font-family="Segoe UI,Arial,sans-serif"><text x="33" y="35" font-size="10" fill="#e1eff1" letter-spacing="3">STORYRENT / THE READING ROOM</text><text x="32" y="88" fill="#e1eff1" font-size="37" font-weight="800" letter-spacing="-1">Doraemon</text><text x="33" y="143" font-size="11" fill="#e1eff1" opacity=".8">Ngày mai đầy bất ngờ</text><circle cx="235" cy="320" r="115" fill="#f2d6a5"/><path d="M0 391L400 282V465H0Z" fill="#468baf"/><path d="M0 419Q100 325 190 420T400 381V490H0Z" fill="#e1eff1" opacity=".7"/><path d="M0 445Q100 354 205 450T400 403V530H0Z" fill="#468baf"/><path d="M152 353L210 248L225 353Z" fill="#e1eff1"/><path d="M228 353V276L280 353Z" fill="#e1eff1" opacity=".65"/><path d="M130 365H298L275 383H148Z" fill="#e1eff1"/><path d="M30 508H370" stroke="#e1eff1" opacity=".3"/><text x="32" y="533" font-size="10" fill="#e1eff1" letter-spacing="2">ILLUSTRATED EDITION</text><text x="365" y="535" text-anchor="end" font-size="21" font-weight="600" fill="#e1eff1">05</text></g></svg>