<svg xmlns="http://www.w3.org/2000/svg" width="400" height="560" viewBox="0 0 400 560"><rect width="400" height="560" fill="#b97033"/><rect x="10" y="10" width="380" height="540" rx="2" fill="none" stroke="#3d362c" opacity=".25"/><g font-family="Segoe UI,Arial,sans-serif"><text x="33" y="35" font-size="10" fill="#3d362c" letter-spacing="3">STORYRENT / THE READING ROOM</text><text x="32" y="88" fill="#3d362c" font-size="37" font-weight="800" letter-spacing="-1">Haikyu!!</text><text x="33" y="143" font-size="11" fill="#3d362c" opacity=".8">Bay qua giới hạn</text><circle cx="210" cy="330" r="120" fill="#ede0b9"/><path d="M90 458L201 226L225 364L318 305L254 460Z" fill="#b97033"/><path d="M130 487L207 338L228 435L272 384L251 487Z" fill="#3d362c"/><path d="M29 267L72 242M320 400L372 367M308 226L352 196" stroke="#3d362c" stroke-width="4"/><circle cx="70" cy="395" r="12" fill="#3d362c"/><path d="M30 508H370" stroke="#3d362c" opacity=".3"/><text x="32" y="533" font-size="10" fill="#3d362c" letter-spacing="2">ILLUSTRATED EDITION</text><text x="365" y="535" text-anchor="end" font-size="21" font-weight="600" fill="#3d362c">14</text></g></svg>